<?xml version="1.0" standalone="no"?><svg xmlns="http://www.w3.org/2000/svg" viewBox="0 0 1440 320"><path fill="#5000ca" fill-opacity="0.7" d="M0,192L40,160C80,128,160,64,240,64C320,64,400,128,480,181.3C560,235,640,277,720,277.3C800,277,880,235,960,186.7C1040,139,1120,85,1200,80C1280,75,1360,117,1400,138.7L1440,160L1440,320L1400,320C1360,320,1280,320,1200,320C1120,320,1040,320,960,320C880,320,800,320,720,320C640,320,560,320,480,320C400,320,320,320,240,320C160,320,80,320,40,320L0,320Z"></path></svg>